<mxfile host="Electron" modified="2023-11-23T08:43:35.309Z" agent="Mozilla/5.0 (Windows NT 10.0; Win64; x64) AppleWebKit/537.36 (KHTML, like Gecko) draw.io/22.1.2 Chrome/114.0.5735.289 Electron/25.9.4 Safari/537.36" etag="QNIv4oMtWDitnYz4w-Fz" version="22.1.2" type="device">
  <diagram name="Page-1" id="M6UeGAsFpi9gd8blMk6j">
    <mxGraphModel dx="1048" dy="714" grid="1" gridSize="10" guides="1" tooltips="1" connect="1" arrows="1" fold="1" page="1" pageScale="1" pageWidth="850" pageHeight="1100" math="0" shadow="0">
      <root>
        <mxCell id="0" />
        <mxCell id="1" parent="0" />
        <mxCell id="oxwOKaUaPCrGdfTYlkoR-8" value="&lt;font style=&quot;font-size: 30px;&quot;&gt;Trustworthy&lt;br&gt;Machine&lt;br&gt;Learning&lt;/font&gt;" style="ellipse;whiteSpace=wrap;html=1;aspect=fixed;fillColor=#647687;fontColor=#ffffff;strokeColor=#314354;" parent="1" vertex="1">
          <mxGeometry x="180" y="170" width="440" height="440" as="geometry" />
        </mxCell>
        <mxCell id="oxwOKaUaPCrGdfTYlkoR-1" value="&lt;font style=&quot;font-size: 30px;&quot;&gt;Robustness&lt;/font&gt;" style="ellipse;whiteSpace=wrap;html=1;aspect=fixed;fillColor=#6a00ff;fontColor=#ffffff;strokeColor=#3700CC;sketch=1;curveFitting=1;jiggle=2;" parent="1" vertex="1">
          <mxGeometry x="280" y="80" width="240" height="240" as="geometry" />
        </mxCell>
        <mxCell id="oxwOKaUaPCrGdfTYlkoR-4" value="&lt;font style=&quot;font-size: 30px;&quot;&gt;Fairness&lt;/font&gt;" style="ellipse;whiteSpace=wrap;html=1;aspect=fixed;fillColor=#a20025;fontColor=#ffffff;strokeColor=#6F0000;sketch=1;curveFitting=1;jiggle=2;" parent="1" vertex="1">
          <mxGeometry x="60" y="270" width="240" height="240" as="geometry" />
        </mxCell>
        <mxCell id="oxwOKaUaPCrGdfTYlkoR-5" value="&lt;font style=&quot;font-size: 30px;&quot;&gt;Integrity&lt;/font&gt;" style="ellipse;whiteSpace=wrap;html=1;aspect=fixed;fillColor=#1ba1e2;fontColor=#ffffff;strokeColor=#006EAF;sketch=1;curveFitting=1;jiggle=2;" parent="1" vertex="1">
          <mxGeometry x="500" y="270" width="240" height="240" as="geometry" />
        </mxCell>
        <mxCell id="oxwOKaUaPCrGdfTYlkoR-6" value="&lt;font style=&quot;font-size: 30px;&quot;&gt;Reproducibility&lt;/font&gt;" style="ellipse;whiteSpace=wrap;html=1;aspect=fixed;fillColor=#60a917;fontColor=#ffffff;strokeColor=#2D7600;sketch=1;curveFitting=1;jiggle=2;shadow=0;" parent="1" vertex="1">
          <mxGeometry x="140" y="520" width="240" height="240" as="geometry" />
        </mxCell>
        <mxCell id="oxwOKaUaPCrGdfTYlkoR-7" value="&lt;font style=&quot;font-size: 30px;&quot;&gt;Explainability&lt;/font&gt;" style="ellipse;whiteSpace=wrap;html=1;aspect=fixed;fillColor=#d80073;fontColor=#ffffff;strokeColor=#A50040;shadow=0;sketch=1;curveFitting=1;jiggle=2;" parent="1" vertex="1">
          <mxGeometry x="420" y="520" width="240" height="240" as="geometry" />
        </mxCell>
      </root>
    </mxGraphModel>
  </diagram>
</mxfile>
